<svg xmlns="http://www.w3.org/2000/svg" width="1216" height="642" style="cursor: move; touch-action: none; -webkit-tap-highlight-color: rgba(0, 0, 0, 0);"><g transform="translate(110.12853960786629,40.90572756570896) scale(0.8705505632961246)"><path class="link" marker-end="" d="M448,104, 628,11" style="stroke-width: 1.16; stroke-opacity: 0.56; stroke: rgb(80, 80, 80); fill: none;"></path><path class="link" marker-end="" d="M448,150, 628,11" style="stroke-width: 1.16; stroke-opacity: 0.56; stroke: rgb(80, 80, 80); fill: none;"></path><path class="link" marker-end="" d="M448,196, 628,11" style="stroke-width: 1.16; stroke-opacity: 0.56; stroke: rgb(80, 80, 80); fill: none;"></path><path class="link" marker-end="" d="M448,242, 628,11" style="stroke-width: 1.16; stroke-opacity: 0.56; stroke: rgb(80, 80, 80); fill: none;"></path><path class="link" marker-end="" d="M448,288, 628,11" style="stroke-width: 1.16; stroke-opacity: 0.56; stroke: rgb(80, 80, 80); fill: none;"></path><path class="link" marker-end="" d="M448,334, 628,11" style="stroke-width: 1.16; stroke-opacity: 0.56; stroke: rgb(80, 80, 80); fill: none;"></path><path class="link" marker-end="" d="M448,380, 628,11" style="stroke-width: 1.16; stroke-opacity: 0.56; stroke: rgb(80, 80, 80); fill: none;"></path><path class="link" marker-end="" d="M448,426, 628,11" style="stroke-width: 1.16; stroke-opacity: 0.56; stroke: rgb(80, 80, 80); fill: none;"></path><path class="link" marker-end="" d="M448,472, 628,11" style="stroke-width: 1.16; stroke-opacity: 0.56; stroke: rgb(80, 80, 80); fill: none;"></path><path class="link" marker-end="" d="M448,518, 628,11" style="stroke-width: 1.16; stroke-opacity: 0.56; stroke: rgb(80, 80, 80); fill: none;"></path><path class="link" marker-end="" d="M448,104, 628,51" style="stroke-width: 1.16; stroke-opacity: 0.56; stroke: rgb(80, 80, 80); fill: none;"></path><path class="link" marker-end="" d="M448,104, 628,91" style="stroke-width: 1.16; stroke-opacity: 0.56; stroke: rgb(80, 80, 80); fill: none;"></path><path class="link" marker-end="" d="M448,104, 628,131" style="stroke-width: 1.16; stroke-opacity: 0.56; stroke: rgb(80, 80, 80); fill: none;"></path><path class="link" marker-end="" d="M448,150, 628,51" style="stroke-width: 1.16; stroke-opacity: 0.56; stroke: rgb(80, 80, 80); fill: none;"></path><path class="link" marker-end="" d="M448,150, 628,91" style="stroke-width: 1.16; stroke-opacity: 0.56; stroke: rgb(80, 80, 80); fill: none;"></path><path class="link" marker-end="" d="M448,150, 628,131" style="stroke-width: 1.16; stroke-opacity: 0.56; stroke: rgb(80, 80, 80); fill: none;"></path><path class="link" marker-end="" d="M448,196, 628,51" style="stroke-width: 1.16; stroke-opacity: 0.56; stroke: rgb(80, 80, 80); fill: none;"></path><path class="link" marker-end="" d="M448,196, 628,91" style="stroke-width: 1.16; stroke-opacity: 0.56; stroke: rgb(80, 80, 80); fill: none;"></path><path class="link" marker-end="" d="M448,196, 628,131" style="stroke-width: 1.16; stroke-opacity: 0.56; stroke: rgb(80, 80, 80); fill: none;"></path><path class="link" marker-end="" d="M448,242, 628,51" style="stroke-width: 1.16; stroke-opacity: 0.56; stroke: rgb(80, 80, 80); fill: none;"></path><path class="link" marker-end="" d="M448,242, 628,91" style="stroke-width: 1.16; stroke-opacity: 0.56; stroke: rgb(80, 80, 80); fill: none;"></path><path class="link" marker-end="" d="M448,242, 628,131" style="stroke-width: 1.16; stroke-opacity: 0.56; stroke: rgb(80, 80, 80); fill: none;"></path><path class="link" marker-end="" d="M448,288, 628,51" style="stroke-width: 1.16; stroke-opacity: 0.56; stroke: rgb(80, 80, 80); fill: none;"></path><path class="link" marker-end="" d="M448,288, 628,91" style="stroke-width: 1.16; stroke-opacity: 0.56; stroke: rgb(80, 80, 80); fill: none;"></path><path class="link" marker-end="" d="M448,288, 628,131" style="stroke-width: 1.16; stroke-opacity: 0.56; stroke: rgb(80, 80, 80); fill: none;"></path><path class="link" marker-end="" d="M448,334, 628,51" style="stroke-width: 1.16; stroke-opacity: 0.56; stroke: rgb(80, 80, 80); fill: none;"></path><path class="link" marker-end="" d="M448,334, 628,91" style="stroke-width: 1.16; stroke-opacity: 0.56; stroke: rgb(80, 80, 80); fill: none;"></path><path class="link" marker-end="" d="M448,334, 628,131" style="stroke-width: 1.16; stroke-opacity: 0.56; stroke: rgb(80, 80, 80); fill: none;"></path><path class="link" marker-end="" d="M448,380, 628,51" style="stroke-width: 1.16; stroke-opacity: 0.56; stroke: rgb(80, 80, 80); fill: none;"></path><path class="link" marker-end="" d="M448,380, 628,91" style="stroke-width: 1.16; stroke-opacity: 0.56; stroke: rgb(80, 80, 80); fill: none;"></path><path class="link" marker-end="" d="M448,380, 628,131" style="stroke-width: 1.16; stroke-opacity: 0.56; stroke: rgb(80, 80, 80); fill: none;"></path><path class="link" marker-end="" d="M448,426, 628,51" style="stroke-width: 1.16; stroke-opacity: 0.56; stroke: rgb(80, 80, 80); fill: none;"></path><path class="link" marker-end="" d="M448,426, 628,91" style="stroke-width: 1.16; stroke-opacity: 0.56; stroke: rgb(80, 80, 80); fill: none;"></path><path class="link" marker-end="" d="M448,426, 628,131" style="stroke-width: 1.16; stroke-opacity: 0.56; stroke: rgb(80, 80, 80); fill: none;"></path><path class="link" marker-end="" d="M448,472, 628,51" style="stroke-width: 1.16; stroke-opacity: 0.56; stroke: rgb(80, 80, 80); fill: none;"></path><path class="link" marker-end="" d="M448,472, 628,91" style="stroke-width: 1.16; stroke-opacity: 0.56; stroke: rgb(80, 80, 80); fill: none;"></path><path class="link" marker-end="" d="M448,472, 628,131" style="stroke-width: 1.16; stroke-opacity: 0.56; stroke: rgb(80, 80, 80); fill: none;"></path><path class="link" marker-end="" d="M448,518, 628,51" style="stroke-width: 1.16; stroke-opacity: 0.56; stroke: rgb(80, 80, 80); fill: none;"></path><path class="link" marker-end="" d="M448,518, 628,91" style="stroke-width: 1.16; stroke-opacity: 0.56; stroke: rgb(80, 80, 80); fill: none;"></path><path class="link" marker-end="" d="M448,518, 628,131" style="stroke-width: 1.16; stroke-opacity: 0.56; stroke: rgb(80, 80, 80); fill: none;"></path><path class="link" marker-end="" d="M628,11, 808,311" style="stroke-width: 1.16; stroke-opacity: 0.56; stroke: rgb(80, 80, 80); fill: none;"></path><path class="link" marker-end="" d="M628,51, 808,311" style="stroke-width: 1.16; stroke-opacity: 0.56; stroke: rgb(80, 80, 80); fill: none;"></path><path class="link" marker-end="" d="M628,91, 808,311" style="stroke-width: 1.16; stroke-opacity: 0.56; stroke: rgb(80, 80, 80); fill: none;"></path><path class="link" marker-end="" d="M628,131, 808,311" style="stroke-width: 1.16; stroke-opacity: 0.56; stroke: rgb(80, 80, 80); fill: none;"></path><path class="link" marker-end="" d="M448,104, 628,171" style="stroke-width: 1.16; stroke-opacity: 0.56; stroke: rgb(80, 80, 80); fill: none;"></path><path class="link" marker-end="" d="M448,150, 628,171" style="stroke-width: 1.16; stroke-opacity: 0.56; stroke: rgb(80, 80, 80); fill: none;"></path><path class="link" marker-end="" d="M448,196, 628,171" style="stroke-width: 1.16; stroke-opacity: 0.56; stroke: rgb(80, 80, 80); fill: none;"></path><path class="link" marker-end="" d="M448,242, 628,171" style="stroke-width: 1.16; stroke-opacity: 0.56; stroke: rgb(80, 80, 80); fill: none;"></path><path class="link" marker-end="" d="M448,288, 628,171" style="stroke-width: 1.16; stroke-opacity: 0.56; stroke: rgb(80, 80, 80); fill: none;"></path><path class="link" marker-end="" d="M448,334, 628,171" style="stroke-width: 1.16; stroke-opacity: 0.56; stroke: rgb(80, 80, 80); fill: none;"></path><path class="link" marker-end="" d="M448,380, 628,171" style="stroke-width: 1.16; stroke-opacity: 0.56; stroke: rgb(80, 80, 80); fill: none;"></path><path class="link" marker-end="" d="M448,426, 628,171" style="stroke-width: 1.16; stroke-opacity: 0.56; stroke: rgb(80, 80, 80); fill: none;"></path><path class="link" marker-end="" d="M448,472, 628,171" style="stroke-width: 1.16; stroke-opacity: 0.56; stroke: rgb(80, 80, 80); fill: none;"></path><path class="link" marker-end="" d="M448,518, 628,171" style="stroke-width: 1.16; stroke-opacity: 0.56; stroke: rgb(80, 80, 80); fill: none;"></path><path class="link" marker-end="" d="M628,171, 808,311" style="stroke-width: 1.16; stroke-opacity: 0.56; stroke: rgb(80, 80, 80); fill: none;"></path><path class="link" marker-end="" d="M448,104, 628,211" style="stroke-width: 1.16; stroke-opacity: 0.56; stroke: rgb(80, 80, 80); fill: none;"></path><path class="link" marker-end="" d="M448,150, 628,211" style="stroke-width: 1.16; stroke-opacity: 0.56; stroke: rgb(80, 80, 80); fill: none;"></path><path class="link" marker-end="" d="M448,196, 628,211" style="stroke-width: 1.16; stroke-opacity: 0.56; stroke: rgb(80, 80, 80); fill: none;"></path><path class="link" marker-end="" d="M448,242, 628,211" style="stroke-width: 1.16; stroke-opacity: 0.56; stroke: rgb(80, 80, 80); fill: none;"></path><path class="link" marker-end="" d="M448,288, 628,211" style="stroke-width: 1.16; stroke-opacity: 0.56; stroke: rgb(80, 80, 80); fill: none;"></path><path class="link" marker-end="" d="M448,334, 628,211" style="stroke-width: 1.16; stroke-opacity: 0.56; stroke: rgb(80, 80, 80); fill: none;"></path><path class="link" marker-end="" d="M448,380, 628,211" style="stroke-width: 1.16; stroke-opacity: 0.56; stroke: rgb(80, 80, 80); fill: none;"></path><path class="link" marker-end="" d="M448,426, 628,211" style="stroke-width: 1.16; stroke-opacity: 0.56; stroke: rgb(80, 80, 80); fill: none;"></path><path class="link" marker-end="" d="M448,472, 628,211" style="stroke-width: 1.16; stroke-opacity: 0.56; stroke: rgb(80, 80, 80); fill: none;"></path><path class="link" marker-end="" d="M448,518, 628,211" style="stroke-width: 1.16; stroke-opacity: 0.56; stroke: rgb(80, 80, 80); fill: none;"></path><path class="link" marker-end="" d="M628,211, 808,311" style="stroke-width: 1.16; stroke-opacity: 0.56; stroke: rgb(80, 80, 80); fill: none;"></path><path class="link" marker-end="" d="M448,104, 628,251" style="stroke-width: 1.16; stroke-opacity: 0.56; stroke: rgb(80, 80, 80); fill: none;"></path><path class="link" marker-end="" d="M448,150, 628,251" style="stroke-width: 1.16; stroke-opacity: 0.56; stroke: rgb(80, 80, 80); fill: none;"></path><path class="link" marker-end="" d="M448,196, 628,251" style="stroke-width: 1.16; stroke-opacity: 0.56; stroke: rgb(80, 80, 80); fill: none;"></path><path class="link" marker-end="" d="M448,242, 628,251" style="stroke-width: 1.16; stroke-opacity: 0.56; stroke: rgb(80, 80, 80); fill: none;"></path><path class="link" marker-end="" d="M448,288, 628,251" style="stroke-width: 1.16; stroke-opacity: 0.56; stroke: rgb(80, 80, 80); fill: none;"></path><path class="link" marker-end="" d="M448,334, 628,251" style="stroke-width: 1.16; stroke-opacity: 0.56; stroke: rgb(80, 80, 80); fill: none;"></path><path class="link" marker-end="" d="M448,380, 628,251" style="stroke-width: 1.16; stroke-opacity: 0.56; stroke: rgb(80, 80, 80); fill: none;"></path><path class="link" marker-end="" d="M448,426, 628,251" style="stroke-width: 1.16; stroke-opacity: 0.56; stroke: rgb(80, 80, 80); fill: none;"></path><path class="link" marker-end="" d="M448,472, 628,251" style="stroke-width: 1.16; stroke-opacity: 0.56; stroke: rgb(80, 80, 80); fill: none;"></path><path class="link" marker-end="" d="M448,518, 628,251" style="stroke-width: 1.16; stroke-opacity: 0.56; stroke: rgb(80, 80, 80); fill: none;"></path><path class="link" marker-end="" d="M628,251, 808,311" style="stroke-width: 1.16; stroke-opacity: 0.56; stroke: rgb(80, 80, 80); fill: none;"></path><path class="link" marker-end="" d="M448,104, 628,291" style="stroke-width: 1.16; stroke-opacity: 0.56; stroke: rgb(80, 80, 80); fill: none;"></path><path class="link" marker-end="" d="M448,104, 628,331" style="stroke-width: 1.16; stroke-opacity: 0.56; stroke: rgb(80, 80, 80); fill: none;"></path><path class="link" marker-end="" d="M448,104, 628,371" style="stroke-width: 1.16; stroke-opacity: 0.56; stroke: rgb(80, 80, 80); fill: none;"></path><path class="link" marker-end="" d="M448,150, 628,291" style="stroke-width: 1.16; stroke-opacity: 0.56; stroke: rgb(80, 80, 80); fill: none;"></path><path class="link" marker-end="" d="M448,150, 628,331" style="stroke-width: 1.16; stroke-opacity: 0.56; stroke: rgb(80, 80, 80); fill: none;"></path><path class="link" marker-end="" d="M448,150, 628,371" style="stroke-width: 1.16; stroke-opacity: 0.56; stroke: rgb(80, 80, 80); fill: none;"></path><path class="link" marker-end="" d="M448,196, 628,291" style="stroke-width: 1.16; stroke-opacity: 0.56; stroke: rgb(80, 80, 80); fill: none;"></path><path class="link" marker-end="" d="M448,196, 628,331" style="stroke-width: 1.16; stroke-opacity: 0.56; stroke: rgb(80, 80, 80); fill: none;"></path><path class="link" marker-end="" d="M448,196, 628,371" style="stroke-width: 1.16; stroke-opacity: 0.56; stroke: rgb(80, 80, 80); fill: none;"></path><path class="link" marker-end="" d="M448,242, 628,291" style="stroke-width: 1.16; stroke-opacity: 0.56; stroke: rgb(80, 80, 80); fill: none;"></path><path class="link" marker-end="" d="M448,242, 628,331" style="stroke-width: 1.16; stroke-opacity: 0.56; stroke: rgb(80, 80, 80); fill: none;"></path><path class="link" marker-end="" d="M448,242, 628,371" style="stroke-width: 1.16; stroke-opacity: 0.56; stroke: rgb(80, 80, 80); fill: none;"></path><path class="link" marker-end="" d="M448,288, 628,291" style="stroke-width: 1.16; stroke-opacity: 0.56; stroke: rgb(80, 80, 80); fill: none;"></path><path class="link" marker-end="" d="M448,288, 628,331" style="stroke-width: 1.16; stroke-opacity: 0.56; stroke: rgb(80, 80, 80); fill: none;"></path><path class="link" marker-end="" d="M448,288, 628,371" style="stroke-width: 1.16; stroke-opacity: 0.56; stroke: rgb(80, 80, 80); fill: none;"></path><path class="link" marker-end="" d="M448,334, 628,291" style="stroke-width: 1.16; stroke-opacity: 0.56; stroke: rgb(80, 80, 80); fill: none;"></path><path class="link" marker-end="" d="M448,334, 628,331" style="stroke-width: 1.16; stroke-opacity: 0.56; stroke: rgb(80, 80, 80); fill: none;"></path><path class="link" marker-end="" d="M448,334, 628,371" style="stroke-width: 1.16; stroke-opacity: 0.56; stroke: rgb(80, 80, 80); fill: none;"></path><path class="link" marker-end="" d="M448,380, 628,291" style="stroke-width: 1.16; stroke-opacity: 0.56; stroke: rgb(80, 80, 80); fill: none;"></path><path class="link" marker-end="" d="M448,380, 628,331" style="stroke-width: 1.16; stroke-opacity: 0.56; stroke: rgb(80, 80, 80); fill: none;"></path><path class="link" marker-end="" d="M448,380, 628,371" style="stroke-width: 1.16; stroke-opacity: 0.56; stroke: rgb(80, 80, 80); fill: none;"></path><path class="link" marker-end="" d="M448,426, 628,291" style="stroke-width: 1.16; stroke-opacity: 0.56; stroke: rgb(80, 80, 80); fill: none;"></path><path class="link" marker-end="" d="M448,426, 628,331" style="stroke-width: 1.16; stroke-opacity: 0.56; stroke: rgb(80, 80, 80); fill: none;"></path><path class="link" marker-end="" d="M448,426, 628,371" style="stroke-width: 1.16; stroke-opacity: 0.56; stroke: rgb(80, 80, 80); fill: none;"></path><path class="link" marker-end="" d="M448,472, 628,291" style="stroke-width: 1.16; stroke-opacity: 0.56; stroke: rgb(80, 80, 80); fill: none;"></path><path class="link" marker-end="" d="M448,472, 628,331" style="stroke-width: 1.16; stroke-opacity: 0.56; stroke: rgb(80, 80, 80); fill: none;"></path><path class="link" marker-end="" d="M448,472, 628,371" style="stroke-width: 1.16; stroke-opacity: 0.56; stroke: rgb(80, 80, 80); fill: none;"></path><path class="link" marker-end="" d="M448,518, 628,291" style="stroke-width: 1.16; stroke-opacity: 0.56; stroke: rgb(80, 80, 80); fill: none;"></path><path class="link" marker-end="" d="M448,518, 628,331" style="stroke-width: 1.16; stroke-opacity: 0.56; stroke: rgb(80, 80, 80); fill: none;"></path><path class="link" marker-end="" d="M448,518, 628,371" style="stroke-width: 1.16; stroke-opacity: 0.56; stroke: rgb(80, 80, 80); fill: none;"></path><path class="link" marker-end="" d="M628,291, 808,311" style="stroke-width: 1.16; stroke-opacity: 0.56; stroke: rgb(80, 80, 80); fill: none;"></path><path class="link" marker-end="" d="M628,331, 808,311" style="stroke-width: 1.16; stroke-opacity: 0.56; stroke: rgb(80, 80, 80); fill: none;"></path><path class="link" marker-end="" d="M628,371, 808,311" style="stroke-width: 1.16; stroke-opacity: 0.56; stroke: rgb(80, 80, 80); fill: none;"></path><path class="link" marker-end="" d="M448,104, 628,411" style="stroke-width: 1.16; stroke-opacity: 0.56; stroke: rgb(80, 80, 80); fill: none;"></path><path class="link" marker-end="" d="M448,150, 628,411" style="stroke-width: 1.16; stroke-opacity: 0.56; stroke: rgb(80, 80, 80); fill: none;"></path><path class="link" marker-end="" d="M448,196, 628,411" style="stroke-width: 1.16; stroke-opacity: 0.56; stroke: rgb(80, 80, 80); fill: none;"></path><path class="link" marker-end="" d="M448,242, 628,411" style="stroke-width: 1.16; stroke-opacity: 0.56; stroke: rgb(80, 80, 80); fill: none;"></path><path class="link" marker-end="" d="M448,288, 628,411" style="stroke-width: 1.16; stroke-opacity: 0.56; stroke: rgb(80, 80, 80); fill: none;"></path><path class="link" marker-end="" d="M448,334, 628,411" style="stroke-width: 1.16; stroke-opacity: 0.56; stroke: rgb(80, 80, 80); fill: none;"></path><path class="link" marker-end="" d="M448,380, 628,411" style="stroke-width: 1.16; stroke-opacity: 0.56; stroke: rgb(80, 80, 80); fill: none;"></path><path class="link" marker-end="" d="M448,426, 628,411" style="stroke-width: 1.16; stroke-opacity: 0.56; stroke: rgb(80, 80, 80); fill: none;"></path><path class="link" marker-end="" d="M448,472, 628,411" style="stroke-width: 1.16; stroke-opacity: 0.56; stroke: rgb(80, 80, 80); fill: none;"></path><path class="link" marker-end="" d="M448,518, 628,411" style="stroke-width: 1.16; stroke-opacity: 0.56; stroke: rgb(80, 80, 80); fill: none;"></path><path class="link" marker-end="" d="M628,411, 808,311" style="stroke-width: 1.16; stroke-opacity: 0.56; stroke: rgb(80, 80, 80); fill: none;"></path><path class="link" marker-end="" d="M448,104, 628,451" style="stroke-width: 1.16; stroke-opacity: 0.56; stroke: rgb(80, 80, 80); fill: none;"></path><path class="link" marker-end="" d="M448,150, 628,451" style="stroke-width: 1.16; stroke-opacity: 0.56; stroke: rgb(80, 80, 80); fill: none;"></path><path class="link" marker-end="" d="M448,196, 628,451" style="stroke-width: 1.16; stroke-opacity: 0.56; stroke: rgb(80, 80, 80); fill: none;"></path><path class="link" marker-end="" d="M448,242, 628,451" style="stroke-width: 1.16; stroke-opacity: 0.56; stroke: rgb(80, 80, 80); fill: none;"></path><path class="link" marker-end="" d="M448,288, 628,451" style="stroke-width: 1.16; stroke-opacity: 0.56; stroke: rgb(80, 80, 80); fill: none;"></path><path class="link" marker-end="" d="M448,334, 628,451" style="stroke-width: 1.16; stroke-opacity: 0.56; stroke: rgb(80, 80, 80); fill: none;"></path><path class="link" marker-end="" d="M448,380, 628,451" style="stroke-width: 1.16; stroke-opacity: 0.56; stroke: rgb(80, 80, 80); fill: none;"></path><path class="link" marker-end="" d="M448,426, 628,451" style="stroke-width: 1.16; stroke-opacity: 0.56; stroke: rgb(80, 80, 80); fill: none;"></path><path class="link" marker-end="" d="M448,472, 628,451" style="stroke-width: 1.16; stroke-opacity: 0.56; stroke: rgb(80, 80, 80); fill: none;"></path><path class="link" marker-end="" d="M448,518, 628,451" style="stroke-width: 1.16; stroke-opacity: 0.56; stroke: rgb(80, 80, 80); fill: none;"></path><path class="link" marker-end="" d="M628,451, 808,311" style="stroke-width: 1.16; stroke-opacity: 0.56; stroke: rgb(80, 80, 80); fill: none;"></path><path class="link" marker-end="" d="M448,104, 628,491" style="stroke-width: 1.16; stroke-opacity: 0.56; stroke: rgb(80, 80, 80); fill: none;"></path><path class="link" marker-end="" d="M448,150, 628,491" style="stroke-width: 1.16; stroke-opacity: 0.56; stroke: rgb(80, 80, 80); fill: none;"></path><path class="link" marker-end="" d="M448,196, 628,491" style="stroke-width: 1.16; stroke-opacity: 0.56; stroke: rgb(80, 80, 80); fill: none;"></path><path class="link" marker-end="" d="M448,242, 628,491" style="stroke-width: 1.16; stroke-opacity: 0.56; stroke: rgb(80, 80, 80); fill: none;"></path><path class="link" marker-end="" d="M448,288, 628,491" style="stroke-width: 1.16; stroke-opacity: 0.56; stroke: rgb(80, 80, 80); fill: none;"></path><path class="link" marker-end="" d="M448,334, 628,491" style="stroke-width: 1.16; stroke-opacity: 0.56; stroke: rgb(80, 80, 80); fill: none;"></path><path class="link" marker-end="" d="M448,380, 628,491" style="stroke-width: 1.16; stroke-opacity: 0.56; stroke: rgb(80, 80, 80); fill: none;"></path><path class="link" marker-end="" d="M448,426, 628,491" style="stroke-width: 1.16; stroke-opacity: 0.56; stroke: rgb(80, 80, 80); fill: none;"></path><path class="link" marker-end="" d="M448,472, 628,491" style="stroke-width: 1.16; stroke-opacity: 0.56; stroke: rgb(80, 80, 80); fill: none;"></path><path class="link" marker-end="" d="M448,518, 628,491" style="stroke-width: 1.16; stroke-opacity: 0.56; stroke: rgb(80, 80, 80); fill: none;"></path><path class="link" marker-end="" d="M628,491, 808,311" style="stroke-width: 1.16; stroke-opacity: 0.56; stroke: rgb(80, 80, 80); fill: none;"></path><path class="link" marker-end="" d="M448,104, 628,531" style="stroke-width: 1.16; stroke-opacity: 0.56; stroke: rgb(80, 80, 80); fill: none;"></path><path class="link" marker-end="" d="M448,150, 628,531" style="stroke-width: 1.16; stroke-opacity: 0.56; stroke: rgb(80, 80, 80); fill: none;"></path><path class="link" marker-end="" d="M448,196, 628,531" style="stroke-width: 1.16; stroke-opacity: 0.56; stroke: rgb(80, 80, 80); fill: none;"></path><path class="link" marker-end="" d="M448,242, 628,531" style="stroke-width: 1.16; stroke-opacity: 0.56; stroke: rgb(80, 80, 80); fill: none;"></path><path class="link" marker-end="" d="M448,288, 628,531" style="stroke-width: 1.16; stroke-opacity: 0.56; stroke: rgb(80, 80, 80); fill: none;"></path><path class="link" marker-end="" d="M448,334, 628,531" style="stroke-width: 1.16; stroke-opacity: 0.56; stroke: rgb(80, 80, 80); fill: none;"></path><path class="link" marker-end="" d="M448,380, 628,531" style="stroke-width: 1.16; stroke-opacity: 0.56; stroke: rgb(80, 80, 80); fill: none;"></path><path class="link" marker-end="" d="M448,426, 628,531" style="stroke-width: 1.16; stroke-opacity: 0.56; stroke: rgb(80, 80, 80); fill: none;"></path><path class="link" marker-end="" d="M448,472, 628,531" style="stroke-width: 1.16; stroke-opacity: 0.56; stroke: rgb(80, 80, 80); fill: none;"></path><path class="link" marker-end="" d="M448,518, 628,531" style="stroke-width: 1.16; stroke-opacity: 0.56; stroke: rgb(80, 80, 80); fill: none;"></path><path class="link" marker-end="" d="M628,531, 808,311" style="stroke-width: 1.16; stroke-opacity: 0.56; stroke: rgb(80, 80, 80); fill: none;"></path><path class="link" marker-end="" d="M448,104, 628,571" style="stroke-width: 1.16; stroke-opacity: 0.56; stroke: rgb(80, 80, 80); fill: none;"></path><path class="link" marker-end="" d="M448,150, 628,571" style="stroke-width: 1.16; stroke-opacity: 0.56; stroke: rgb(80, 80, 80); fill: none;"></path><path class="link" marker-end="" d="M448,196, 628,571" style="stroke-width: 1.16; stroke-opacity: 0.56; stroke: rgb(80, 80, 80); fill: none;"></path><path class="link" marker-end="" d="M448,242, 628,571" style="stroke-width: 1.16; stroke-opacity: 0.56; stroke: rgb(80, 80, 80); fill: none;"></path><path class="link" marker-end="" d="M448,288, 628,571" style="stroke-width: 1.16; stroke-opacity: 0.56; stroke: rgb(80, 80, 80); fill: none;"></path><path class="link" marker-end="" d="M448,334, 628,571" style="stroke-width: 1.16; stroke-opacity: 0.56; stroke: rgb(80, 80, 80); fill: none;"></path><path class="link" marker-end="" d="M448,380, 628,571" style="stroke-width: 1.16; stroke-opacity: 0.56; stroke: rgb(80, 80, 80); fill: none;"></path><path class="link" marker-end="" d="M448,426, 628,571" style="stroke-width: 1.16; stroke-opacity: 0.56; stroke: rgb(80, 80, 80); fill: none;"></path><path class="link" marker-end="" d="M448,472, 628,571" style="stroke-width: 1.16; stroke-opacity: 0.56; stroke: rgb(80, 80, 80); fill: none;"></path><path class="link" marker-end="" d="M448,518, 628,571" style="stroke-width: 1.16; stroke-opacity: 0.56; stroke: rgb(80, 80, 80); fill: none;"></path><path class="link" marker-end="" d="M628,571, 808,311" style="stroke-width: 1.16; stroke-opacity: 0.56; stroke: rgb(80, 80, 80); fill: none;"></path><path class="link" marker-end="" d="M448,104, 628,611" style="stroke-width: 1.16; stroke-opacity: 0.56; stroke: rgb(80, 80, 80); fill: none;"></path><path class="link" marker-end="" d="M448,150, 628,611" style="stroke-width: 1.16; stroke-opacity: 0.56; stroke: rgb(80, 80, 80); fill: none;"></path><path class="link" marker-end="" d="M448,196, 628,611" style="stroke-width: 1.16; stroke-opacity: 0.56; stroke: rgb(80, 80, 80); fill: none;"></path><path class="link" marker-end="" d="M448,242, 628,611" style="stroke-width: 1.16; stroke-opacity: 0.56; stroke: rgb(80, 80, 80); fill: none;"></path><path class="link" marker-end="" d="M448,288, 628,611" style="stroke-width: 1.16; stroke-opacity: 0.56; stroke: rgb(80, 80, 80); fill: none;"></path><path class="link" marker-end="" d="M448,334, 628,611" style="stroke-width: 1.16; stroke-opacity: 0.56; stroke: rgb(80, 80, 80); fill: none;"></path><path class="link" marker-end="" d="M448,380, 628,611" style="stroke-width: 1.16; stroke-opacity: 0.56; stroke: rgb(80, 80, 80); fill: none;"></path><path class="link" marker-end="" d="M448,426, 628,611" style="stroke-width: 1.16; stroke-opacity: 0.56; stroke: rgb(80, 80, 80); fill: none;"></path><path class="link" marker-end="" d="M448,472, 628,611" style="stroke-width: 1.16; stroke-opacity: 0.56; stroke: rgb(80, 80, 80); fill: none;"></path><path class="link" marker-end="" d="M448,518, 628,611" style="stroke-width: 1.16; stroke-opacity: 0.56; stroke: rgb(80, 80, 80); fill: none;"></path><path class="link" marker-end="" d="M628,611, 808,311" style="stroke-width: 1.16; stroke-opacity: 0.56; stroke: rgb(80, 80, 80); fill: none;"></path><circle r="10" class="node" id="0_0" cx="448" cy="104" style="fill: rgb(255, 255, 255); stroke: rgb(51, 51, 51);"></circle><circle r="10" class="node" id="0_1" cx="448" cy="150" style="fill: rgb(255, 255, 255); stroke: rgb(51, 51, 51);"></circle><circle r="10" class="node" id="0_2" cx="448" cy="196" style="fill: rgb(255, 255, 255); stroke: rgb(51, 51, 51);"></circle><circle r="10" class="node" id="0_3" cx="448" cy="242" style="fill: rgb(255, 255, 255); stroke: rgb(51, 51, 51);"></circle><circle r="10" class="node" id="0_4" cx="448" cy="288" style="fill: rgb(255, 255, 255); stroke: rgb(51, 51, 51);"></circle><circle r="10" class="node" id="0_5" cx="448" cy="334" style="fill: rgb(255, 255, 255); stroke: rgb(51, 51, 51);"></circle><circle r="10" class="node" id="0_6" cx="448" cy="380" style="fill: rgb(255, 255, 255); stroke: rgb(51, 51, 51);"></circle><circle r="10" class="node" id="0_7" cx="448" cy="426" style="fill: rgb(255, 255, 255); stroke: rgb(51, 51, 51);"></circle><circle r="10" class="node" id="0_8" cx="448" cy="472" style="fill: rgb(255, 255, 255); stroke: rgb(51, 51, 51);"></circle><circle r="10" class="node" id="0_9" cx="448" cy="518" style="fill: rgb(255, 255, 255); stroke: rgb(51, 51, 51);"></circle><circle r="10" class="node" id="1_0" cx="628" cy="11" style="fill: rgb(255, 255, 255); stroke: rgb(51, 51, 51);"></circle><text class="text" dy=".35em" x="413" y="651" style="font-size: 12px;">Input Layer ∈ ℝ¹⁰</text><text class="text" dy=".35em" x="593" y="651" style="font-size: 12px;">Hidden Layer ∈ ℝ¹⁶</text><circle r="10" class="node" id="1_1" cx="628" cy="51" style="fill: rgb(255, 255, 255); stroke: rgb(51, 51, 51);"></circle><circle r="10" class="node" id="1_2" cx="628" cy="91" style="fill: rgb(255, 255, 255); stroke: rgb(51, 51, 51);"></circle><circle r="10" class="node" id="1_3" cx="628" cy="131" style="fill: rgb(255, 255, 255); stroke: rgb(51, 51, 51);"></circle><circle r="10" class="node" id="1_4" cx="628" cy="171" style="fill: rgb(255, 255, 255); stroke: rgb(51, 51, 51);"></circle><circle r="10" class="node" id="1_5" cx="628" cy="211" style="fill: rgb(255, 255, 255); stroke: rgb(51, 51, 51);"></circle><circle r="10" class="node" id="1_6" cx="628" cy="251" style="fill: rgb(255, 255, 255); stroke: rgb(51, 51, 51);"></circle><circle r="10" class="node" id="1_7" cx="628" cy="291" style="fill: rgb(255, 255, 255); stroke: rgb(51, 51, 51);"></circle><circle r="10" class="node" id="1_8" cx="628" cy="331" style="fill: rgb(255, 255, 255); stroke: rgb(51, 51, 51);"></circle><circle r="10" class="node" id="1_9" cx="628" cy="371" style="fill: rgb(255, 255, 255); stroke: rgb(51, 51, 51);"></circle><circle r="10" class="node" id="1_10" cx="628" cy="411" style="fill: rgb(255, 255, 255); stroke: rgb(51, 51, 51);"></circle><circle r="10" class="node" id="1_11" cx="628" cy="451" style="fill: rgb(255, 255, 255); stroke: rgb(51, 51, 51);"></circle><circle r="10" class="node" id="1_12" cx="628" cy="491" style="fill: rgb(255, 255, 255); stroke: rgb(51, 51, 51);"></circle><circle r="10" class="node" id="1_13" cx="628" cy="531" style="fill: rgb(255, 255, 255); stroke: rgb(51, 51, 51);"></circle><circle r="10" class="node" id="1_14" cx="628" cy="571" style="fill: rgb(255, 255, 255); stroke: rgb(51, 51, 51);"></circle><circle r="10" class="node" id="1_15" cx="628" cy="611" style="fill: rgb(255, 255, 255); stroke: rgb(51, 51, 51);"></circle><circle r="10" class="node" id="2_0" cx="808" cy="311" style="fill: rgb(255, 255, 255); stroke: rgb(51, 51, 51);"></circle><text class="text" dy=".35em" x="773" y="651" style="font-size: 12px;">Output Layer ∈ ℝ¹</text></g><defs><marker id="arrow" viewBox="0 -5 10 10" markerWidth="7" markerHeight="7" orient="auto" refX="40"><path d="M0,-5L10,0L0,5" style="stroke: rgb(80, 80, 80); fill: none;"></path></marker></defs></svg>